# File created by Blade
# Date/Time:  Wed Apr 08 17:35:25 2015
# Frame Rate: 120.000 fps
#------------------------------------------------------
:FULLY-SPECIFIED
:DEGREES
1727
root 9.381389 38.164513 5.014048 167.189763 -56.178883 -123.892008
Spine -33.319002 3.899194 14.189026
Head 24.843696 -25.148728 13.453594
LeftShoulder -6.996817 20.630146 17.607047
LeftArm 22.445248 28.937557 -74.156288
LeftForeArm 19.090219 0.000000 26.143256
LeftHand -13.303090 -0.000000 -11.600491
LeftHandThumb1 -26.253704 0.000000 33.147579
RightShoulder -40.536566 -49.999036 22.451825
RightArm 53.881282 -21.826856 48.305828
RightForeArm 5.157925 -0.000000 17.190124
RightHand -2.977582 -0.000000 26.826365
RightHandThumb1 -24.326973 -0.000000 -32.862282
LeftUpLeg -54.593354 32.205522 -6.260369
LeftLeg 16.253717 -0.000000 -0.000000
LeftFoot -11.343509 20.596577 -6.372909
LeftToeBase 7.324973 -0.000000 -0.000000
RightUpLeg -123.854309 -14.577356 34.929222
RightLeg 118.493076 -0.000000 -0.000000
RightFoot 3.521718 -1.828867 25.206409
RightToeBase -1.054257 -0.000000 0.000000
1728
root 9.374860 38.169097 5.009730 167.001140 -56.140841 -123.701575
Spine -33.279118 3.932902 14.278964
Head 24.781360 -25.475996 13.490037
LeftShoulder -6.948571 20.575276 17.663081
LeftArm 22.492469 28.933185 -74.213054
LeftForeArm 19.034387 -0.000000 26.449335
LeftHand -13.272354 -0.000000 -11.476160
LeftHandThumb1 -26.253704 0.000000 33.147579
RightShoulder -40.563457 -49.986249 22.469503
RightArm 53.677681 -21.777919 48.490825
RightForeArm 5.415420 -0.000000 17.201195
RightHand -2.757799 0.000000 26.368848
RightHandThumb1 -24.326973 -0.000000 -32.862282
LeftUpLeg -54.511462 32.219052 -6.126942
LeftLeg 16.165804 -0.000000 -0.000000
LeftFoot -11.305357 20.643534 -6.311131
LeftToeBase 7.296458 -0.000000 -0.000000
RightUpLeg -123.763941 -14.499483 35.067037
RightLeg 118.280377 -0.000000 -0.000000
RightFoot 2.061953 -1.798067 24.638861
RightToeBase -3.391593 -0.000000 0.000000
1729
root 9.367357 38.170056 5.011058 166.890925 -56.188496 -123.560920
Spine -33.293843 3.891692 14.330501
Head 24.704183 -25.798399 13.519785
LeftShoulder -6.928886 20.532149 17.731700
LeftArm 22.550514 28.947669 -74.289452
LeftForeArm 18.989055 -0.000000 26.740708
LeftHand -13.286982 -0.000000 -11.332589
LeftHandThumb1 -26.253704 0.000000 33.147579
RightShoulder -40.636354 -50.004732 22.522248
RightArm 53.534878 -21.711437 48.629004
RightForeArm 5.587736 -0.000000 17.231981
RightHand -2.605820 -0.000000 26.009818
RightHandThumb1 -24.326973 -0.000000 -32.862282
LeftUpLeg -54.451199 32.122222 -6.036871
LeftLeg 16.080776 -0.000000 -0.000000
LeftFoot -11.279250 20.710036 -6.277325
LeftToeBase 7.341680 -0.000000 -0.000000
RightUpLeg -123.796027 -14.463310 35.228460
RightLeg 118.066578 -0.000000 -0.000000
RightFoot 0.437923 -2.035346 23.819954
RightToeBase -5.304669 -0.000000 0.000000
1730
root 9.360460 38.174562 5.011252 166.749236 -56.174559 -123.374659
Spine -33.300086 3.907004 14.428532
Head 24.665508 -26.124657 13.523265
LeftShoulder -6.925500 20.524871 17.760418
LeftArm 22.643200 28.959428 -74.327086
LeftForeArm 18.922494 -0.000000 27.064330
LeftHand -13.358936 -0.000000 -11.193110
LeftHandThumb1 -26.253704 0.000000 33.147579
RightShoulder -40.664016 -50.012741 22.540314
RightArm 53.352091 -21.633270 48.802631
RightForeArm 5.687313 -0.000000 17.266919
RightHand -2.403383 -0.000000 25.568370
RightHandThumb1 -24.326973 -0.000000 -32.862282
LeftUpLeg -54.425515 32.092764 -5.913539
LeftLeg 16.037633 -0.000000 -0.000000
LeftFoot -11.280694 20.732526 -6.294504
LeftToeBase 7.351088 -0.000000 -0.000000
RightUpLeg -123.785721 -14.381290 35.448999
RightLeg 117.800357 -0.000000 -0.000000
RightFoot -1.683380 -2.453586 22.780345
RightToeBase -7.691658 -0.000000 0.000000
1731
root 9.352700 38.177815 5.013879 166.701499 -56.166281 -123.305649
Spine -33.299575 3.909664 14.447289
Head 24.615249 -26.437847 13.588258
LeftShoulder -6.939329 20.494510 17.804264
LeftArm 22.703733 28.963486 -74.378639
LeftForeArm 18.821638 0.000000 27.379040
LeftHand -13.372497 -0.000000 -11.139024
LeftHandThumb1 -26.253704 0.000000 33.147579
RightShoulder -40.713394 -50.024932 22.611955
RightArm 53.241003 -21.585704 48.864734
RightForeArm 5.904891 -0.000000 17.275604
RightHand -2.218517 -0.000000 25.073623
RightHandThumb1 -24.326973 -0.000000 -32.862282
LeftUpLeg -54.374867 32.051111 -5.827801
LeftLeg 15.990796 -0.000000 -0.000000
LeftFoot -11.256018 20.774013 -6.310679
LeftToeBase 7.312016 -0.000000 -0.000000
RightUpLeg -123.780079 -14.308114 35.605709
RightLeg 117.469568 -0.000000 -0.000000
RightFoot -4.029198 -2.907710 21.972333
RightToeBase -9.642020 -0.000000 0.000000
1732
root 9.345844 38.185571 5.014965 166.576720 -56.084883 -123.160507
Spine -33.265199 3.997047 14.522286
Head 24.597040 -26.791584 13.639779
LeftShoulder -6.915842 20.461338 17.847083
LeftArm 22.748615 28.954568 -74.448935
LeftForeArm 18.746028 -0.000000 27.690276
LeftHand -13.370662 -0.000000 -11.074444
LeftHandThumb1 -26.253704 0.000000 33.147579
RightShoulder -40.764545 -50.020242 22.682341
RightArm 53.085244 -21.489245 49.021334
RightForeArm 6.048378 -0.000000 17.282329
RightHand -2.092973 -0.000000 24.553046
RightHandThumb1 -24.326973 -0.000000 -32.862282
LeftUpLeg -54.375454 32.130136 -5.741257
LeftLeg 15.988645 -0.000000 -0.000000
LeftFoot -11.230136 20.760089 -6.283568
LeftToeBase 7.274086 -0.000000 -0.000000
RightUpLeg -123.702793 -14.203963 35.835477
RightLeg 117.041374 -0.000000 -0.000000
RightFoot -6.498096 -3.542249 21.409402
RightToeBase -10.729975 -0.000000 0.000000
